<?xml version="1.0" encoding="UTF-8"?>
<svg id="Layer_27" data-name="Layer 27" xmlns="http://www.w3.org/2000/svg" xmlns:xlink="http://www.w3.org/1999/xlink" viewBox="0 0 894.75 767.64">
  <defs>
    <style>
      .cls-1 {
        stroke-width: .54px;
      }

      .cls-1, .cls-2, .cls-3, .cls-4, .cls-5, .cls-6, .cls-7, .cls-8, .cls-9, .cls-10, .cls-11, .cls-12, .cls-13, .cls-14, .cls-15, .cls-16 {
        fill: none;
      }

      .cls-1, .cls-2, .cls-3, .cls-4, .cls-6, .cls-7, .cls-8, .cls-9, .cls-10, .cls-11, .cls-12, .cls-13, .cls-14, .cls-15, .cls-16 {
        stroke: #570060;
        stroke-linecap: round;
        stroke-linejoin: round;
      }

      .cls-2 {
        stroke-width: .56px;
      }

      .cls-3 {
        stroke-width: .55px;
      }

      .cls-4 {
        stroke-width: .57px;
      }

      .cls-17 {
        clip-path: url(#clippath);
      }

      .cls-5, .cls-18 {
        stroke-width: 0px;
      }

      .cls-6 {
        stroke-width: 4.89px;
      }

      .cls-7 {
        stroke-width: .46px;
      }

      .cls-8 {
        stroke-width: 4.95px;
      }

      .cls-9 {
        stroke-width: .92px;
      }

      .cls-10 {
        stroke-width: .59px;
      }

      .cls-11 {
        stroke-width: .59px;
      }

      .cls-12 {
        stroke-width: .57px;
      }

      .cls-13 {
        stroke-width: 2.94px;
      }

      .cls-14 {
        stroke-width: .59px;
      }

      .cls-15 {
        stroke-width: .49px;
      }

      .cls-16 {
        stroke-width: .51px;
      }

      .cls-18 {
        fill: #570060;
      }
    </style>
    <clipPath id="clippath">
      <path class="cls-5" d="M244.43,532.68c-17.25,54.68-5.18,117.68,31.06,162.12,6.58-29.83,24.73-56.94,49.79-74.41l95.77,93.12c-25.72-34.08-43.66-74-52.07-115.86,23.16,5.18,47.32,10.86,65.36,26.28,24.48,20.93,32.32,54.89,38.79,86.43l7.96-38.81c8.71,33.62,28.79,64.19,56.18,85.55-1.52-17.38-3.05-34.75-4.57-52.13,30.24,38.84,79.75,54.19,126.62,39.12,46.87-15.07,84.01-78.42,85.95-127.61,1.71-43.53-19.5-65.63-41.02-103.52,37.11,36.13,67.07,93.1,94.19,124.54,40.7-24.25,65.61-80.83,71.85-127.79,5.33-40.12,10.42-67.71,12.66-107.43-29.86-4.45-57.38,14.62-83.79,29.22-13.32,7.36-28.42,17.72-42.98,15.57-77.71-11.49-30.47-10.41-12.86-14.19,13.67-2.93,52.73-34.15,63.53-58.39,6.68-14.99,7.73-31.8,8.69-48.18,2.54-43.7,3.89-91.57-22.63-126.39-12.73-16.71-30.67-28.55-48.33-39.92-54.79-35.26-109.75-75.89-173.81-87.8-67.97-12.64-138.08-.98-200.55,28.65-62.47,29.63-120.12,68.6-169.3,117.19-18.42,18.2-42.11,45.38-65.11,57.29-35.46,18.36-72.61,22.39-112.13,20.16-2.79-.16-4.47,3.01-2.79,5.24,6.94,9.19,10.89,16.55,19.21,21.8-6.35-2.03-17.18,2.71-22.89.25-2.44-1.06-4.85.42-5.25,3.05-.54,3.62,1.29,6,3.7,7.33,60.58,33.32,153.75,134.06,228.8,199.52Z"/>
    </clipPath>
  </defs>
  <path class="cls-6" d="M244.43,532.68c-17.25,54.68-5.18,117.68,31.06,162.12,6.58-29.83,24.73-56.94,49.79-74.41l95.77,93.12c-25.72-34.08-43.66-74-52.07-115.86,23.16,5.18,47.32,10.86,65.36,26.28,24.48,20.93,32.32,54.89,38.79,86.43l7.96-38.81c8.71,33.62,28.79,64.19,56.18,85.55-1.52-17.38-3.05-34.75-4.57-52.13,30.24,38.84,79.75,54.19,126.62,39.12,46.87-15.07,84.01-78.42,85.95-127.61,1.71-43.53-19.5-65.63-41.02-103.52,37.11,36.13,67.07,93.1,94.19,124.54,40.7-24.25,65.61-80.83,71.85-127.79,5.33-40.12,10.42-67.71,12.66-107.43-29.86-4.45-57.38,14.62-83.79,29.22-13.32,7.36-28.42,17.72-42.98,15.57-77.71-11.49-30.47-10.41-12.86-14.19,13.67-2.93,52.73-34.15,63.53-58.39,6.68-14.99,7.73-31.8,8.69-48.18,2.54-43.7,3.89-91.57-22.63-126.39-12.73-16.71-30.67-28.55-48.33-39.92-54.79-35.26-109.75-75.89-173.81-87.8-67.97-12.64-138.08-.98-200.55,28.65-62.47,29.63-120.12,68.6-169.3,117.19-18.42,18.2-42.11,45.38-65.11,57.29-35.46,18.36-72.61,22.39-112.13,20.16-2.79-.16-4.47,3.01-2.79,5.24,6.94,9.19,10.89,16.55,19.21,21.8-6.35-2.03-17.18,2.71-22.89.25-2.44-1.06-4.85.42-5.25,3.05-.54,3.62,1.29,6,3.7,7.33,60.58,33.32,153.75,134.06,228.8,199.52Z"/>
  <g>
    <path class="cls-18" d="M392.27,92.46c-15.34,19.5-18.84,45.01-22.81,68.86-7.59,46.46-27.89,170.63-35.73,218.61,7.63-48.71,26.92-171.85,34.28-218.85,1.91-12.14,3.72-24.37,6.96-36.33,3.23-11.91,8.03-23.65,15.76-33.52.78-.94,2.34.11,1.54,1.21h0Z"/>
    <path class="cls-18" d="M341.93,326.07c9.54-7.12,11.27-19.81,13.86-30.76,1.27-5.76,3-11.5,5.52-16.85,3.72-8,8.25-15.56,11.61-23.69,3.48-7.94,6.28-16.47,8.52-24.86,10.68-39.58,10.92-81.78,26.49-120.1,2.12-5.47,4.68-10.82,8.06-15.64,6.31-8.77,17.91-17.26,28.43-19.69-10.49,2.49-22.02,11.07-28.23,19.83-5.04,7.24-7.99,15.64-10.98,23.87-12.69,37.67-13.02,78.12-23.7,116.3-2.08,6.95-4.36,14.2-7.28,20.83-3.29,8.13-7.84,15.87-11.46,23.79-2.45,5.31-4.07,10.86-5.3,16.57-2.56,11.31-4.35,24.41-14.37,31.96-.43.32-1.05.24-1.37-.19-.33-.44-.23-1.06.21-1.38h0Z"/>
    <path class="cls-18" d="M475.98,71.97c-25.75,11.58-40.11,37.61-52.81,61.52-6.49,12.23-11.83,25.05-14.65,38.64-2.97,13.52-4.32,27.36-6.48,41.08-5.9,37.77-18.46,74.44-36.88,107.92-8.15,14.91-17.79,30.78-17.44,48.33-.45-17.57,9.1-33.5,17.17-48.48,18.19-33.52,30.51-70.22,36.18-107.92,3.08-20.51,4.48-41.7,12.11-61.25,2.5-6.51,5.5-12.81,8.68-18.99,12.67-24.27,27.24-50.78,53.32-62.64.49-.22,1.07,0,1.29.49.22.5,0,1.08-.5,1.3h0Z"/>
    <path class="cls-18" d="M383.57,350.83c2.07-21.35,15.86-38.98,21.71-59.16,4.02-13.4,5.56-27.38,7.88-41.17,3.45-20.79,9.34-41.1,16.55-60.88,4.78-13.19,10.14-26.16,15.7-39.03,11-25.29,22.44-53.17,47.06-68.11,11.93-7.39,25.84-11.57,39.87-11.81-14.02.31-27.89,4.58-39.74,12.01-24.48,15.07-35.67,42.87-46.52,68.19-10.95,25.75-21.09,51.98-27.51,79.27-5.2,20.42-5.95,41.68-11.77,61.98-1.95,6.79-4.74,13.31-7.67,19.68-5.8,12.61-12.35,25.2-13.62,39.2-.04.55-.53.96-1.07.9-.54-.05-.93-.54-.88-1.08h0Z"/>
    <path class="cls-18" d="M559,72.28c-9.44,4.76-19.62,7.46-29.56,10.38-37.54,9.72-49.42,27.61-59.16,63.77-5.06,20.15-9.98,40.46-16.85,60.11-3.29,9.88-7.31,19.51-9.72,29.58-2.53,10.11-1.84,20.77-5.08,30.76-2.97,10-6.45,19.79-9.88,29.63-19.41,53.56-56.48,150.34-76.71,204.53,20.24-54.85,56.58-150.86,75.9-204.82,3.38-9.81,6.84-19.65,9.75-29.61,3.18-9.98,2.44-20.62,4.95-30.74,2.4-10.2,6.4-19.86,9.63-29.72,6.8-19.69,11.59-39.88,16.59-60.1,9.67-36.7,22.09-55.18,60.06-65.15,9.97-2.97,20.03-5.69,29.19-10.37.48-.25,1.08-.06,1.32.42.25.48.05,1.07-.43,1.32h0Z"/>
    <path class="cls-18" d="M582.6,80.21s-41.58,20.34-41.58,20.34c-13.63,7-28.27,12.66-40.43,22.11-9.01,7.2-15.88,16.75-22.18,26.34-6.05,9.85-10.08,20.79-14.58,31.41-2.97,7.12-5.81,14.31-9.42,21.13,3.54-6.86,6.3-14.08,9.2-21.23,4.39-10.7,8.31-21.69,14.29-31.65,2.07-3.27,4.24-6.46,6.49-9.61,9.39-13.62,20.57-22.2,35.31-29.41,14-7.17,47.6-23.88,62.04-31.21.48-.24,1.07-.05,1.31.44.25.49.04,1.09-.45,1.32h0Z"/>
    <path class="cls-18" d="M609.79,87.79c-9.36,5.19-32.04,17.86-41.02,22.84-23.94,12.83-44.15,25.9-58.77,49.53-8.34,13.16-13.69,28.1-20.92,41.91-11.18,23.12-24.34,46.65-32.24,71.13-6.71,19.74-11.89,39.97-17.99,59.93-18.04,59.96-40.19,118.6-63.72,176.6,23.3-58.08,45.21-116.79,63.02-176.81,6.02-19.97,11.12-40.22,17.76-60.04,7.8-24.53,20.91-48.2,32.02-71.39,7.22-13.94,12.44-28.75,20.83-42.12,14.68-23.93,35.05-37.26,59.14-50.29,8.94-5.05,31.77-17.84,40.93-23,.47-.26,1.07-.1,1.33.37.27.47.1,1.07-.38,1.33h0Z"/>
    <path class="cls-18" d="M634.7,94.55c-38.04,18.68-73.24,44.16-99.27,77.9-9.79,12.54-19.16,25.51-28.01,38.73-8.66,13.38-15.77,27.68-22.36,42.18-4.5,9.63-6.18,20.25-8.18,30.62-1.72,10.51-4.49,20.84-7.42,31.06-19.63,71.52-40.29,144.2-76.48,209.36,35.93-65.28,56.3-138.01,75.65-209.59,2.89-10.25,5.59-20.48,7.28-31.01,1.97-10.45,3.63-21.16,8.14-30.9,8.63-19.46,18.67-38.43,31.31-55.62,18.09-26.33,38.44-51.53,64.15-70.82,16.89-13.07,35.26-24.13,54.32-33.67.48-.24,1.07-.05,1.31.44.24.49.04,1.08-.44,1.32h0Z"/>
    <path class="cls-18" d="M580.6,127.97c-2.68,3.01-7.16,6.96-10.1,9.78-3.23,3.06-6.78,6.56-9.85,9.83-19.19,20.18-33.89,44.4-44.1,70.26-5.81,15.01-10.65,37.96-14.81,53.73-4.38,17.51-9.53,36.55-14.63,53.93-20.91,71.35-47.88,141.29-76.54,209.83,28.36-68.65,55.01-138.68,75.6-210.1,5.03-17.42,10.08-36.41,14.38-53.95,4.16-16,8.8-38.68,14.63-53.97,11-28.28,27.42-54.6,49.01-76.02,2.99-3.07,6.98-6.75,10.08-9.7,1.7-1.61,3.36-3.23,4.88-4.92.36-.4.98-.43,1.38-.07.4.36.43.98.07,1.38h0Z"/>
    <path class="cls-18" d="M616.19,104.11c-13.74,14.78-29.21,29.14-43.07,43.76-10.31,11.15-21.48,21.99-28.95,35.31-14.54,31.9-20.32,69.18-27.15,103.43-13.97,70.21-33.46,139.47-60.52,205.8-7.72,18.84-16.46,37.85-30.71,52.71,14.19-14.92,22.84-33.94,30.48-52.81,26.77-66.4,45.98-135.69,59.66-205.92,6.19-31.87,11.67-66.66,23.81-96.8,0,0,1.49-3.55,1.49-3.55,2.31-6.06,6.24-11.34,10.22-16.38,16.05-19.77,34.89-37.64,52.72-55.79,3.58-3.64,7.18-7.29,10.55-11.07.36-.4.98-.44,1.38-.08.4.36.44.98.08,1.39h0Z"/>
    <path class="cls-18" d="M650.27,102.48c-7.46,7.91-17.24,12.52-25.86,18.82-10.86,7.5-20.9,16.18-29.8,25.93-3.09,3.18-7.46,8.53-10.36,11.99-2.83,3.73-6.9,8.9-9.46,12.73-4.47,6.31-8.99,13.39-12.97,19.96-5.32,9.1-9.3,18.95-12.26,29.08-6.66,22.92-8.84,46.84-13.45,70.22-5.66,28.61-12.2,57.1-19.82,85.25-11.03,40.98-24.38,81.35-40.28,120.7-7.94,19.56-16.78,39.4-31.57,54.83,14.73-15.48,23.48-35.33,31.34-54.92,15.74-39.4,28.93-79.79,39.8-120.79,7.5-28.16,13.93-56.65,19.48-85.27,4.52-23.44,6.61-47.36,13.2-70.39,2.95-10.22,6.93-20.21,12.29-29.45,3.97-6.61,8.5-13.77,12.96-20.11,13.55-19.65,30.11-37.69,49.84-51.26,8.42-6.21,18.29-10.97,25.44-18.61.36-.41.98-.45,1.39-.09.41.36.44.98.08,1.39h0Z"/>
    <path class="cls-18" d="M666.3,112.42c-43.82,29.85-88.06,62.53-96.72,118.47-2.74,14.99-3.88,31.92-5.35,47.16-9.02,101.41-69.41,187.72-97.3,283.84,27.48-96.13,87.51-182.62,96.15-283.95,1.41-15.32,2.49-32.21,5.18-47.29,5.19-32.9,22.24-59.1,46.61-81.21,15.62-14.37,32.97-26.61,50.33-38.64.44-.31,1.05-.2,1.36.25.31.45.2,1.06-.25,1.36h0Z"/>
    <path class="cls-18" d="M644.44,128.81c-19.67,25.13-38.37,51.65-50.64,81.26-1.76,4.35-3.51,9.39-4.67,13.95-7.69,31.14-11.1,63.19-17.13,94.69-16.68,87.63-52.7,169.83-88.48,251.02,35.43-81.29,71.1-163.6,87.4-251.22,5.91-31.56,9.18-63.6,16.76-94.86,4.43-16.8,12.64-32.4,21.39-47.3,10.15-17.01,21.6-33.2,33.85-48.74.33-.42.95-.5,1.37-.16.43.34.5.96.16,1.38h0Z"/>
    <path class="cls-18" d="M687.38,125.03c-10.52,11.35-17.68,25.39-24.49,39.22-29.76,60.43-59.67,121.07-82.57,184.5-21.2,58.53-37.12,118.81-53.62,178.8,0,0-16.45,60.04-16.45,60.04,0,0,16.22-60.1,16.22-60.1,16.27-60.08,31.95-120.4,52.93-179.07,24.6-68.39,56.61-133.87,88.94-198.86,4.9-9.17,10.5-18.11,17.61-25.85.37-.4.98-.42,1.38-.06.4.37.42.99.05,1.39h0Z"/>
    <path class="cls-18" d="M701.89,133.62c-2.52,3.52-6.31,8.55-8.58,12.14,0,0-4.07,6.22-4.07,6.22-1.34,2.24-4.44,7.45-5.71,9.59-1.08,1.98-4.2,7.73-5.33,9.81-1.15,2.3-3.88,7.79-4.98,10-3.48,7.45-7.4,16.26-10.4,23.91-12.03,30.02-21.01,61.14-30.81,91.94-30.19,94.88-69.73,186.76-117.86,273.92,38.19-69.87,70.92-142.7,97.71-217.68,13.61-37.44,24.57-75.71,36.83-113.6,4.64-14.11,9.72-28.37,15.43-42.1,2.63-6.35,6.14-14.35,9.19-20.48,1.59-3.35,5.04-10.06,6.86-13.31.84-1.63,2.72-4.95,3.68-6.52,0,0,3.81-6.45,3.81-6.45,1.2-1.81,4.92-7.61,6.12-9.43,1.57-2.19,4.99-6.95,6.55-9.14.32-.44.93-.54,1.37-.22.46.33.54.97.19,1.41h0Z"/>
  </g>
  <path class="cls-13" d="M636.48,94.36c27.16,23.38,55.33,48.17,68.12,81.64,1,2.62,1.9,5.56.88,8.18-.91,2.31-3.11,3.81-4.88,5.55-5.09,4.97-6.96,12.32-7.98,19.36-4.8,33.26,4.63,68.32-6.01,100.19-6.28,18.8-19.03,34.71-27.32,52.71-5.31,11.55-8.74,23.85-12.15,36.1-4.27,15.34-8.54,30.69-12.81,46.03-6.04,21.72-12.1,43.52-15.29,65.84-2.03,14.19-2.92,28.69-7.62,42.23-3.35,9.64-8.54,18.52-13.35,27.53-7.3,13.67-13.78,27.77-19.4,42.2-3.55,9.12-7.02,18.77-14.28,25.34-12.19,11.04-30.89,9.96-47.01,6.7-32.04-6.47-62.86-18.94-90.39-36.57"/>
  <path class="cls-8" d="M756.46,166.11c-.14-4.6-.28-9.2-.43-13.8-11.97.35-6.89-3.84-12.73-14.34-12.7-.98-23.44-7.81-20.51-14.65-1.12-5.9-19.39-6.79-20.51-12.7-4.98-.27-11.63-2.66-16.6-2.93-1.31-4.99-2.9-5.32-.38-9.82-7.23-3.06-15.25-4.21-23.05-3.32,2.26-3.72,2.95-8.36,1.88-12.58-8.56-1.45-17.46-.84-25.75,1.75,2.43-6.03,4.85-12.06,7.28-18.09-13.74.84-27.49,1.68-41.23,2.52,1.84-6.73,5.28-13.01,9.96-18.17-14.33-.78-28.85,2.61-41.39,9.64-.9-11.17,5.05-22.61,14.67-28.25-22.18-1.17-44.7,6.38-61.74,20.7,1.74-15.14,11.67-29.06,25.36-35.59-34.77,0-69.17,16.68-90.83,44.05,8.87-18.46,20.81-35.42,35.17-49.97-35.54,7.55-67.83,29.53-88.02,59.9,4.3-14.53,8.6-29.05,12.9-43.58-24.68,13.01-45.61,33.13-59.65,57.34-.45-15.75-.9-31.49-1.35-47.24-13.82,17.85-22.55,39.65-24.86,62.16-9.03-11.77-16.46-24.8-21.99-38.59-2.78,22.71-2.5,45.8.84,68.43,66.52-46.98,146.37-68.03,227.22-59.69,80.85,8.34,160.08,37.22,215.74,96.8Z"/>
  <path class="cls-6" d="M210.7,311.4c-.56,11.13-7.7,17.5-22.42,17.99-15.12.51-17.43-3.94-17.43-15.74s7.28-20.24,22.42-20.24,18.03,6.2,17.43,17.99Z"/>
  <path class="cls-6" d="M232.95,307.47c-1.08,21.39-14.8,33.63-43.09,34.59-29.07.98-33.51-7.58-33.51-30.26s14-38.91,43.09-38.91,34.66,11.93,33.51,34.59Z"/>
  <path class="cls-6" d="M231.39,209.05c-6.54,8.6-15.01,15.49-23.03,22.74-12.98,11.74-24.95,24.6-35.71,38.4-10.55,13.52-21.43,23.76-18.31,40.63,1.33,7.21,5.99,19.97,7.64,27.12,1.35,5.86,1.33,11.94,1.14,17.95-.53,16.68-2.32,33.32-5.36,49.73-1.72,9.32-3.86,18.77-2.73,28.17,1.12,9.41,6.27,18.99,15.09,22.46,8.61,3.39,18.38.27,26.64-3.89,4.41-2.22,5.48-14.49,8.36-18.49,4.49-6.23,6.46-25.64,7.81-33.2,16.6-92.77,58.75-153.23,64.04-244.23-.09,1.54-30.44,18.95-33.76,25.48-2.02,3.96-1.73,3.27-2.54,7.64-1.31,7.08-4.97,13.81-9.29,19.49Z"/>
  <path class="cls-6" d="M244.21,531.61c7.45-.45,14.94-.24,22.35.64-.4-3.08-.8-6.16-1.21-9.24,5.54,3.34,10.99,6.82,16.44,10.31,27.13,17.34,54.27,34.67,81.4,52.01,2.35,1.5,2.75.39,4.07,2.85s3.38,7.38.98,8.79"/>
  <path class="cls-6" d="M265.69,533.48c11.97,14.02,42.98,68.36,58.6,85.94"/>
  <path class="cls-13" d="M704.23,512.97c6.55,3.95,30.42-10.15,32.23-17.58,9.77-40.04,1.76-48.7-23.44-56.64-28.14-8.87-65.44,40.04-8.79,74.22Z"/>
  <path class="cls-6" d="M317.25,389.86c21.41-12.24,42.82-24.48,64.23-36.73,6.25-3.57,12.98-7.26,20.16-6.74-6.81,7.89-13.65,15.84-18.98,24.79-6.88,11.55-11.44,25-21.72,33.67-5.05,4.27-11.88,8.16-12.29,14.76-.24,3.83,1.9,7.35,3.76,10.7,4.16,7.49,7.4,16.1,5.71,24.5-1.69,8.4-9.94,15.89-18.31,14.03.65,7.6-8.46,14.15-15.46,11.11,2.11-13.65-3.91-27.2-10.85-39.15-5.34-9.21-13.11-19.08-15.73-29.57-3.36-13.43,8.62-15.18,19.48-21.39Z"/>
  <g>
    <path class="cls-18" d="M372.61,106.99c-13.45,21.42-14.4,47.65-16.06,72.26-3.06,47.92-11.25,175.98-14.42,225.47,2.88-50.2,10.16-177.12,12.93-225.56.73-12.52,1.33-25.11,3.4-37.57,2.06-12.41,5.68-24.82,12.46-35.66.68-1.02,2.36-.14,1.67,1.06h0Z"/>
    <path class="cls-18" d="M345.08,349.21c8.86-8.23,9.3-21.26,10.82-32.6.71-5.95,1.87-11.94,3.86-17.62,2.92-8.48,6.72-16.61,9.27-25.19,2.7-8.4,4.66-17.32,6.07-26.04,6.81-41.14,2.95-83.87,14.66-124.26,1.57-5.75,3.56-11.44,6.43-16.7,5.35-9.57,16.19-19.5,26.58-23.02-10.33,3.56-21.12,13.61-26.36,23.14-3.54,6.5-5.61,13.86-7.44,21.01-10.37,40.66-6.11,83.3-13.36,124.47-1.39,7.24-2.96,14.82-5.23,21.83-2.49,8.57-6.28,16.88-9.11,25.27-1.93,5.63-3,11.41-3.67,17.32-1.47,11.71-1.9,25.13-11.21,33.85-.4.37-1.03.35-1.4-.05-.38-.41-.35-1.04.07-1.41h0Z"/>
    <path class="cls-18" d="M453.95,78.23c-24.82,14.46-36.42,42.43-46.77,67.92-5.27,13.06-9.28,26.6-10.73,40.64-1.62,13.99-1.63,28.13-2.45,42.24-2.24,38.81-11.16,77.19-26.28,112.99-6.69,15.95-14.71,33-12.67,50.73-2.15-17.74,5.78-34.84,12.38-50.85,14.88-35.82,23.57-74.21,25.58-112.93,1.09-21.07.42-42.64,6.03-63.23,1.83-6.86,4.2-13.54,6.76-20.14,10.29-25.86,22.05-54.33,47.17-69.1.47-.27,1.08-.11,1.35.36.28.48.11,1.09-.37,1.36h0Z"/>
    <path class="cls-18" d="M388.93,370.42c-.02-21.78,11.96-41.03,15.86-62.01,3.95-20.98,2.78-42.58,6.04-63.68,3.86-28.26,11.53-55.85,20.08-83,8.53-26.68,16.94-56.08,40.02-74.01,11.2-8.81,24.84-14.54,39-16.12-14.15,1.66-27.73,7.47-38.85,16.32-22.92,18.04-31.09,47.34-39.46,74.04-8.38,27.16-15.87,54.72-19.56,82.95-3.14,21.17-1.84,42.73-5.69,63.82-1.28,7.06-3.44,13.93-5.74,20.67-4.55,13.34-9.82,26.75-9.73,41.02.01.55-.44,1.02-.99,1.01-.55,0-.99-.45-.99-1h0Z"/>
    <path class="cls-18" d="M536.63,70.67c-29.67,18.16-59.16,16.21-73.74,54.11-7.49,19.79-8.61,41.23-12.29,61.94-1.77,10.44-3.86,20.82-6.25,31.13-2.92,12.88-6.97,25.53-7.37,38.76-.05,7.93.2,15.96-1.46,23.77-2.02,10.4-4.52,20.67-6.99,30.96-14.13,56.21-41.59,157.79-56.47,214.71,16.49-64.74,44.19-166.43,59.22-230.36,2.25-10.28,4.89-20.58,4.62-31.18-.93-16.01,3.63-31.59,7.24-46.95,2.35-10.3,4.39-20.66,6.11-31.08,4.62-25.78,4.77-53.82,19.37-76.56,9.07-14.2,23.34-21.36,38.46-27.46,9.77-4.03,19.68-7.77,28.46-13.47.46-.3,1.07-.17,1.37.29.3.46.17,1.08-.29,1.37h0Z"/>
    <path class="cls-18" d="M560.89,76.49l-39.65,24.77c-12.97,8.45-27.1,15.64-38.24,26.52-8.2,8.26-14.07,18.59-19.36,28.9-4.97,10.56-7.93,21.96-11.34,33.1-2.25,7.46-4.37,14.98-7.29,22.21,2.84-7.26,4.88-14.8,7.05-22.28,3.3-11.2,6.13-22.64,11.02-33.3,9.72-19.89,18.66-31.94,37.68-43.78,13.31-8.67,45.33-28.95,59.08-37.81.46-.29,1.07-.16,1.37.3.3.46.16,1.09-.31,1.38h0Z"/>
    <path class="cls-18" d="M588.69,81.62c-8.91,6.23-30.48,21.41-39.02,27.39-23.02,15.6-41.54,30.85-53.75,56.53-6.86,14.24-10.78,29.86-16.66,44.57-8.91,24.52-19.67,49.68-25.06,75.25-4.71,20.64-7.91,41.61-12.04,62.4-12.13,62.42-28.47,123.94-46.24,184.96,17.53-61.09,33.62-122.65,45.51-185.1,4.05-20.79,7.16-41.77,11.8-62.47,5.29-25.6,15.98-50.91,24.81-75.48,5.85-14.83,9.64-30.29,16.54-44.76,12.22-25.96,30.92-41.55,54.06-57.35,8.5-6.04,30.21-21.36,38.92-27.54.45-.32,1.06-.21,1.38.24.32.45.21,1.07-.24,1.38h0Z"/>
    <path class="cls-18" d="M614.14,86.13c-27.29,17.23-52.67,37.92-73.06,63.05-13.68,16.7-24.55,35.45-35.11,54.23-5.38,9.37-10.3,18.93-14.46,28.9-4.2,9.93-7.84,20.09-11.27,30.33-3.36,10.23-3.96,21.14-4.94,31.82-.69,10.79-2.53,21.49-4.42,32.13-12.59,74.25-26.07,149.76-55.77,219.37,29.42-69.71,42.61-145.23,54.91-219.51,1.85-10.65,3.64-21.26,4.29-32.06.95-10.77,1.52-21.71,4.87-32.09,3.4-10.26,7.01-20.47,11.19-30.46,8.4-19.97,19.58-38.59,30.74-57.12,16.94-27.79,39.56-51.87,65.36-71.63,8.59-6.6,17.49-12.8,26.62-18.62.46-.29,1.07-.16,1.37.3.3.46.16,1.08-.31,1.37h0Z"/>
    <path class="cls-18" d="M563.52,125.22c-2.39,3.33-6.5,7.8-9.17,10.98-2.95,3.44-6.15,7.37-8.91,11-18.55,24.37-31.72,52.92-38.77,82.7-2.81,12.89-5.78,35.78-7.81,49.06-2.66,18.18-5.95,37.97-9.34,56.09-13.9,74.37-33.96,147.95-55.86,220.31,22.95-76.97,43.72-155.26,57.38-234.48,3.73-21.63,7.51-48.34,10.6-70.24,1.19-8.01,2.52-16.63,4.4-24.53,7.86-31.06,22.07-60.73,42.31-85.66,2.7-3.43,6.34-7.58,9.16-10.9,1.55-1.81,3.06-3.63,4.42-5.5.32-.44.94-.54,1.38-.22.44.32.54.94.22,1.38h0Z"/>
    <path class="cls-18" d="M596.64,97.6c-12.32,16.42-26.44,32.59-38.89,48.87-7.87,10.3-15.81,20.61-22.14,31.92-2.65,4.5-4.07,9.4-5.52,14.37-3.57,12.47-6.09,25.22-7.98,38.06-3.54,23.97-5.44,53.42-8.19,77.56-7.34,67.22-19.64,134-38.66,198.93-5.86,19.86-12.68,40.02-25.5,56.58,12.75-16.61,19.48-36.77,25.26-56.65,18.75-64.97,30.78-131.76,37.85-198.97,4.52-40.72,5.31-84.2,18.05-123.42,1.78-5,4.52-9.49,7.28-13.97,5.61-8.82,11.84-17.18,18.17-25.45,12.36-16.3,26.43-32.55,38.65-48.96.32-.45.94-.56,1.39-.23.44.32.54.94.22,1.38h0Z"/>
    <path class="cls-18" d="M630.41,92.71c-6.69,8.8-16.11,14.48-24.14,21.77-10.19,8.74-19.37,18.63-27.29,29.46-7.96,10.54-14.97,22.59-21.2,34.24,0,0-3.57,7.24-3.57,7.24-6.21,11.9-10.39,24.78-12.71,38.01-4.32,23.85-4.17,48.31-6.52,72.41-2.86,29.51-6.62,59-11.47,88.24-7,42.57-16.37,84.77-28.37,126.22-6,20.6-12.85,41.6-26.14,58.78,13.22-17.23,19.98-38.23,25.9-58.85,11.84-41.48,21.04-83.69,27.87-126.27,4.73-29.25,8.38-58.72,11.12-88.23,2.26-24.14,2.01-48.6,6.25-72.55,2.27-13.32,6.46-26.4,12.69-38.44,0,0,3.56-7.28,3.56-7.28l3.87-7.13c11.58-21.35,26.26-41.4,44.78-57.26,7.84-7.19,17.34-13.03,23.75-21.52.32-.45.94-.55,1.38-.24.45.32.55.94.23,1.38h0Z"/>
    <path class="cls-18" d="M647.33,101.3c-34.06,29.05-70.54,61.26-81.33,106.53-4.28,18.31-4.46,37.19-4.34,55.92,5.57,109.3-49.55,208.11-69.32,313.28,19.34-105.16,74.05-204.08,68.08-313.26-.2-18.79-.08-37.84,4.16-56.26,10.66-45.64,47.31-78.39,81.46-107.7.41-.36,1.04-.31,1.39.1.36.42.31,1.04-.11,1.4h0Z"/>
    <path class="cls-18" d="M627.15,120.02c-17.24,27.55-33.34,56.4-42.63,87.68-1.35,4.67-2.55,9.81-3.27,14.62-4.59,32.34-4.9,65.14-7.85,97.67-8.11,90.46-35.99,177.44-63.79,263.41,27.43-86.03,54.95-173.1,62.68-263.51,2.82-32.57,2.99-65.36,7.46-97.8,2.74-17.48,9.38-34.14,16.65-50.16,8.47-18.3,18.34-35.92,29.08-52.97.29-.46.9-.6,1.36-.31.47.29.6.91.3,1.37h0Z"/>
    <path class="cls-18" d="M669.54,112.11c-9.43,12.62-15.18,27.61-20.64,42.32-23.81,64.32-47.73,128.87-64.37,195.48-15.42,61.48-25.41,124.16-36.02,186.61,0,0-10.56,62.5-10.56,62.5,0,0,10.31-62.54,10.31-62.54,10.37-62.52,20.12-125.22,35.31-186.81,17.83-71.81,43.39-141.48,69.31-210.7,3.99-9.81,8.7-19.45,15.07-28.05.33-.44.94-.53,1.38-.21.44.33.53.95.2,1.39h0Z"/>
    <path class="cls-18" d="M684.81,119.47c-2.17,3.83-5.48,9.33-7.39,13.2,0,0-3.46,6.73-3.46,6.73-1.12,2.41-3.7,8.02-4.77,10.31-.88,2.12-3.44,8.26-4.36,10.49-.92,2.45-3.11,8.3-3.99,10.64-2.73,7.91-5.79,17.24-8.03,25.29-9.06,31.64-14.97,64.07-21.74,96.26-20.84,99.15-51.29,196.28-90.83,289.56,31.3-74.74,56.83-151.88,76.22-230.56,9.91-39.31,17.11-79.17,25.63-118.8,3.25-14.76,6.91-29.72,11.27-44.22,2-6.7,4.72-15.16,7.16-21.69,1.25-3.56,4.05-10.71,5.54-14.19.68-1.74,2.22-5.3,3.03-6.99,0,0,3.17-6.93,3.17-6.93,1.02-1.96,4.18-8.22,5.2-10.19,1.35-2.39,4.31-7.57,5.66-9.94.27-.47.87-.64,1.35-.37.49.28.65.92.34,1.39h0Z"/>
  </g>
  <g>
    <path class="cls-7" d="M794.44,436.08c16.64-12.31,33.89-25.37,54.49-29.11-3.84-.09-7.64,2.18-9.27,5.52,5.16-.71,10.32-1.42,15.48-2.13-30.1,7.49-54.83,27.45-81.12,43.45-8.7,5.3-22.81,13.26-33.02,9.07,20.49-5.09,36.69-14.42,53.43-26.8Z"/>
    <path class="cls-9" d="M797.4,447.98c17.94-10.48,36.58-21.64,57.47-23.18-3.8-.49-7.84,1.36-9.85,4.51,5.21-.16,10.42-.32,15.63-.48-30.76,4.26-57.62,21.49-85.57,34.62-9.25,4.35-24.18,10.77-33.84,5.52,20.94-2.89,38.1-10.45,56.15-21Z"/>
    <path class="cls-9" d="M799.72,458.02c18.82-8.93,38.4-18.48,59.34-18.25-3.74-.81-7.93.69-10.22,3.66,5.2.28,10.4.56,15.6.84-31.01,1.65-59.34,16.56-88.37,27.28-9.61,3.55-25.06,8.69-34.2,2.65,21.11-1.12,38.89-7.2,57.83-16.19Z"/>
    <path class="cls-7" d="M801.94,468.94c19.63-7.12,40.08-14.79,60.89-12.6-3.64-1.16-7.96-.06-10.54,2.69,5.14.77,10.29,1.53,15.43,2.3-31.02-1.27-60.71,10.91-90.68,18.87-9.92,2.63-25.82,6.3-34.29-.58,21.11.87,39.42-3.52,59.18-10.69Z"/>
    <path class="cls-7" d="M801.16,481.25c20.33-4.97,41.53-10.39,61.94-5.97-3.48-1.54-7.9-.91-10.78,1.54,5.02,1.32,10.04,2.63,15.06,3.95-30.66-4.6-61.57,4.32-92.26,9-10.16,1.55-26.37,3.49-33.98-4.26,20.87,3.14,39.56.74,60.02-4.26Z"/>
    <path class="cls-7" d="M800.77,490.94c20.7-3.18,42.32-6.75,62.22-.57-3.32-1.84-7.77-1.6-10.87.6,4.87,1.75,9.75,3.5,14.62,5.24-30.08-7.25-61.69-1.05-92.68.95-10.26.66-26.58,1.18-33.43-7.2,20.48,4.94,39.31,4.18,60.14.97Z"/>
    <path class="cls-7" d="M798.11,503.82c20.95-.16,42.86-.57,61.56,8.41-2.99-2.3-7.43-2.7-10.84-.98,4.54,2.43,9.08,4.86,13.62,7.3-28.59-11.51-60.78-9.93-91.71-12.42-10.24-.82-26.45-2.66-31.9-11.94,19.46,7.84,38.18,9.8,59.27,9.64Z"/>
    <path class="cls-7" d="M794.17,512.21c20.89,1.42,42.76,2.66,60.66,13.04-2.79-2.52-7.18-3.25-10.72-1.79,4.33,2.77,8.65,5.54,12.98,8.31-27.55-13.64-59.76-14.5-90.38-19.31-10.14-1.59-26.14-4.65-30.81-14.32,18.75,9.29,37.25,12.66,58.27,14.09Z"/>
    <path class="cls-7" d="M788.06,525.42c20.22,5.15,41.44,10.31,56.99,23.72-2.25-2.98-6.42-4.49-10.17-3.69,3.71,3.5,7.41,7,11.12,10.5-24.38-18.36-55.82-25-84.93-35.24-9.64-3.39-24.74-9.27-27.45-19.62,16.59,12.5,34.09,19.14,54.44,24.32Z"/>
    <path class="cls-7" d="M780.75,537.82c18.96,8.46,38.9,17.1,51.76,32.93-1.67-3.31-5.5-5.5-9.34-5.34,3.01,4.07,6.02,8.14,9.03,12.21-20.65-22.18-50.38-33.99-77.16-48.96-8.87-4.96-22.66-13.28-23.44-23.93,14.05,15.1,30.06,24.58,49.14,33.09Z"/>
    <path class="cls-7" d="M775.04,547.34c18.04,10.15,37.03,20.56,48.26,37.49-1.34-3.45-4.93-5.98-8.76-6.17,2.6,4.33,5.19,8.65,7.79,12.98-18.36-23.96-46.79-38.42-71.96-55.77-8.33-5.74-21.24-15.29-20.97-25.97,12.5,16.32,27.5,27.21,45.65,37.42Z"/>
    <path class="cls-7" d="M763.81,556.51c15.73,13.22,32.35,26.86,40.08,45.52-.64-3.63-3.68-6.76-7.4-7.63,1.71,4.72,3.41,9.44,5.12,14.16-13.37-26.86-38.46-46.17-59.8-67.74-7.06-7.14-17.88-18.84-15.54-29.29,9.1,18.29,21.7,31.68,37.53,44.98Z"/>
    <path class="cls-7" d="M756.3,564.55c13.62,15.22,29.69,29.55,35.65,48.81-.3-3.68-3.03-7.05-6.66-8.24,1.26,4.85,2.52,9.7,3.78,14.55-10.8-27.91-69.23-92.97-65.93-103.18,7.35,19,12.28,24.73,33.16,48.06Z"/>
  </g>
  <g class="cls-17">
    <path class="cls-11" d="M241.75,187.89c37.91-9.97,93.85-29.86,127.81-48.4,12.81-6.99,25.35-14.6,39.22-19.54,15.11-5.39,31.33-7.45,47.44-8.91,37.91-3.43,76.06-3.7,114.15-3.79,18.59-.04,37.23-.04,55.7,1.97,7.79.85,15.57,2.05,23.41,1.88,17.21-.37,33.34-7.25,49.66-12.33,40.34-12.55,83.51-14.31,126.02-15.97"/>
    <path class="cls-11" d="M228.76,204.43c38.92-9.97,105.67-34.61,140.53-53.15,13.14-6.99,26.02-14.6,40.25-19.54,15.51-5.39,32.16-7.45,48.7-8.91,38.91-3.43,78.08-3.7,117.18-3.79,19.08-.04,38.22-.04,57.17,1.97,7.99.85,15.98,2.05,24.02,1.88,17.66-.37,34.22-7.25,50.97-12.33,41.4-12.55,85.72-14.31,129.35-15.97"/>
    <path class="cls-11" d="M219.31,218.6c39.97-9.97,114.05-35.43,149.85-53.97,13.5-6.99,26.72-14.6,41.35-19.54,15.93-5.39,33.03-7.45,50.02-8.91,39.97-3.43,80.2-3.7,120.36-3.79,19.6-.04,39.26-.04,58.72,1.97,8.21.85,16.41,2.05,24.68,1.88,18.14-.37,35.15-7.25,52.35-12.33,42.53-12.55,88.04-14.31,132.86-15.97"/>
    <path class="cls-11" d="M212.22,231.59c40.16-5.9,116.24-31.93,153.04-50.47,13.88-6.99,27.46-14.6,42.49-19.54,16.37-5.39,33.95-7.45,51.4-8.91,41.08-3.43,82.42-3.7,123.69-3.79,20.15-.04,40.35-.04,60.35,1.97,8.44.85,16.87,2.05,25.36,1.88,18.65-.37,36.12-7.25,53.81-12.33,43.71-12.55,90.49-14.31,136.55-15.97"/>
    <path class="cls-11" d="M203.95,244.58c46.06,1.18,119.05-31.57,156.23-50.1,14.02-6.99,27.75-14.6,42.93-19.54,16.54-5.39,34.3-7.45,51.93-8.91,41.5-3.43,83.27-3.7,124.97-3.79,20.35-.04,40.76-.04,60.97,1.97,8.52.85,17.04,2.05,25.62,1.88,18.84-.37,36.5-7.25,54.36-12.33,44.16-12.55,91.42-14.31,137.95-15.97"/>
    <path class="cls-11" d="M192.14,257.57c50.79,5.9,125.79-28.85,163.15-47.39,14.09-6.99,27.89-14.6,43.15-19.54,16.62-5.39,34.47-7.45,52.2-8.91,41.71-3.43,83.69-3.7,125.6-3.79,20.46-.04,40.97-.04,61.28,1.97,8.57.85,17.13,2.05,25.75,1.88,18.93-.37,36.68-7.25,54.64-12.33,44.38-12.55,91.88-14.31,138.65-15.97"/>
    <path class="cls-11" d="M186.24,269.38c67.32,11.81,130.11-23.38,167.48-41.92,14.09-6.99,27.89-14.6,43.15-19.54,16.62-5.39,34.47-7.45,52.2-8.91,41.71-3.43,83.69-3.7,125.6-3.79,20.46-.04,40.97-.04,61.28,1.97,8.57.85,17.13,2.05,25.75,1.88,18.93-.37,36.68-7.25,54.64-12.33,44.38-12.55,91.88-14.31,138.65-15.97"/>
    <path class="cls-11" d="M850.85,183.3c-55.86,7.71-111.72,15.43-167.57,23.14-13.92,1.92-27.86,3.85-41.9,4.4-46.86,1.85-92.55-5.23-143.34.67"/>
    <path class="cls-11" d="M724.7,261.63c-24.07,2.6-48.64.54-71.94-6.05-17.37-4.91-33.97-12.29-51.33-17.26-28.92-8.28-59.31-9.73-89.39-10.55-16.68-.45-33.44-.73-49.98,1.5-39.53,5.32-75.59,24.51-111.63,41.59-36.04,17.08-74.68,32.64-114.47,29.88"/>
    <path class="cls-11" d="M727.24,282.25c-31.12-2.43-62.07-7.09-92.5-14.04-43-9.82-85.91-24.3-129.96-22.05-46.52,2.38-89.77,23.18-132.91,40.74-43.15,17.57-90.25,32.42-135.73,22.31"/>
    <path class="cls-11" d="M725.7,302.89c-20.72-12.63-46.51-11.81-70.62-14.6-15.14-1.76-30.05-5.08-45.04-7.83-69.52-12.78-148.6-13.39-218.3-1.63"/>
    <path class="cls-11" d="M300.78,309.51c31.68,4.75,63.76-2.34,95.32-7.83,57.16-9.93,115.23-14.66,173.25-14.1,35.61.34,71.36,2.69,106.14,10.35,47.31,10.42,91.88,30.43,136.06,50.31"/>
    <path class="cls-14" d="M778.84,379.3c-37.91-4.76-75.41-14.5-109.84-31.25-9.69-4.72-19.12-9.98-28.76-14.8-63.95-32.02-149.41-44.91-220.16-35.52"/>
    <path class="cls-10" d="M777.66,399.88c-19.31-3.54-39.23-2.04-58.65-4.93-37.86-5.65-71.09-27.43-106-43.25-83.68-37.92-198.04-38.21-289.77-39.81"/>
    <path class="cls-11" d="M235.92,291.26c25.97-3.63,51.66-9.29,76.76-16.9,16.9-5.13,33.6-11.18,49.21-19.45,13.32-7.07,25.78-15.72,39.31-22.38,42.18-20.78,91.2-19.54,138.22-20.33,41.31-.69,98.54,27.02,105.15,29.53,5.88,2.23,12.31,2.43,18.6,2.53,61.98.95,124.09-6.16,184.25-21.11"/>
    <path class="cls-11" d="M776.76,415.64c-28.65.31-57.81-3.84-85.02-12.82-16.35-5.39-36.37-16.33-51.97-23.62-33.6-15.71-64.8-18.81-101.03-26.76-43.59-9.56-87.76-16.46-132.19-20.64-13.91-1.31-27.86-2.35-41.83-2.59-43.9-.73-88.68,6.46-131.21-4.42"/>
    <path class="cls-11" d="M705.9,407.55c-42.02-13.25-109.69-28.5-153.34-34.54-16.37-2.27-32.9-3.51-49.16-6.48-20.47-3.75-40.35-10.22-60.76-14.29-57.69-11.52-118.92-3.79-174.56-22.9"/>
    <path class="cls-11" d="M227.34,338.21c61.24,19.07,125,28.45,188.46,37.77,49.45,7.26,98.9,14.52,148.35,21.78,28.24,4.15,56.48,8.29,84.71,12.44,27.93,4.1,55.91,8.21,84.09,9.95,14.28.88,28.59,1.15,42.89,1.54"/>
    <path class="cls-11" d="M778.59,442.85c-82.83-22.87-171.26-17.46-254.62-38.32-21.53-5.39-42.62-12.51-63-21.27"/>
    <path class="cls-11" d="M216.94,347.32c32.79,14.47,72.95,23.23,107.9,31.13,50.1,11.33,101.54,15.68,151.86,25.98,39.48,8.08,78.2,19.81,117.98,26.24,21.04,3.4,42.29,5.31,63.52,7.22,40.28,3.62,80.56,7.23,120.84,10.85"/>
    <path class="cls-11" d="M824.76,464.35c-46.49-.48-92.99-.96-139.47-1.9-23.87-.48-47.95-1.11-71.14-6.78-12.82-3.13-25.22-7.77-37.95-11.26-54.95-15.06-114.47-8.37-168.52-26.38-42.31-14.1-136.85-57.62-178.18-83.61"/>
    <path class="cls-12" d="M771.59,479.7c-43.57-.48-87.14-.96-130.7-1.9-22.37-.48-44.94-1.11-66.67-6.78-12.01-3.13-23.63-7.77-35.56-11.26-51.49-15.06-107.27-8.37-157.92-26.38-39.65-14.1-132.55-72.88-171.33-89.51"/>
    <path class="cls-4" d="M763.37,499.78c-42.71-.48-85.42-.96-128.12-1.9-21.92-.48-44.05-1.11-65.35-6.78-11.78-3.13-23.17-7.77-34.86-11.26-50.47-15.06-105.15-8.37-154.8-26.38-38.87-14.1-158.8-84.69-196.82-101.32"/>
    <path class="cls-2" d="M743.3,513.95c-41.18-.48-82.37-.96-123.54-1.9-21.14-.48-42.48-1.11-63.02-6.78-11.35-3.13-22.34-7.77-33.61-11.26-48.67-15.06-101.39-8.37-149.27-26.38-37.48-14.1-175.03-92.96-211.69-109.59"/>
    <path class="cls-3" d="M730.32,525.76c-39.96-.48-79.93-.96-119.88-1.9-20.52-.48-192.16-26.41-238.62-44.42-36.37-14.1-204.78-101.23-240.35-117.85"/>
    <path class="cls-1" d="M713.62,538.59c-38.22-.48-76.44-.96-114.65-1.9-19.62-.48-39.42-1.11-58.48-6.78-10.54-3.13-128.11-13.83-169.73-37.64-18.08-10.34-157.32-80.92-254.64-111.79"/>
    <path class="cls-16" d="M673.49,555.13c-34.36-.48-68.72-.96-103.07-1.9-17.64-.48-168.7-33.09-208.65-51.11-31.27-14.1-63.78-38.97-133.46-66.13"/>
    <path class="cls-15" d="M658.15,563.39c-32.32-.48-64.65-.96-96.97-1.9-16.59-.48-133.27-12.13-193.01-44.42-28.7-15.51-89.82-47.93-118.6-64.55"/>
  </g>
</svg>